<svg xmlns="http://www.w3.org/2000/svg" xmlns:xlink="http://www.w3.org/1999/xlink" width="500" zoomAndPan="magnify" viewBox="0 0 375 374.999991" height="500" preserveAspectRatio="xMidYMid meet" version="1.0"><defs><g/></defs><g fill="#1e242d" fill-opacity="1"><g transform="translate(90.514159, 198.376451)"><g><path d="M 3.21875 0 L 3.21875 -23.703125 L 6.203125 -23.703125 L 6.203125 -2.65625 L 16.5625 -2.65625 L 16.5625 0 Z M 3.21875 0 "/></g></g></g><g fill="#1e242d" fill-opacity="1"><g transform="translate(107.904417, 198.376451)"><g><path d="M 16.46875 0 L 3.21875 0 L 3.21875 -23.703125 L 16.46875 -23.703125 L 16.46875 -21.078125 L 6.203125 -21.078125 L 6.203125 -13.671875 L 15.859375 -13.671875 L 15.859375 -11.078125 L 6.203125 -11.078125 L 6.203125 -2.625 L 16.46875 -2.625 Z M 16.46875 0 "/></g></g></g><g fill="#1e242d" fill-opacity="1"><g transform="translate(126.356675, 198.376451)"><g><path d="M 20.546875 0 L 17.03125 0 L 8.625 -11.3125 L 6.203125 -9.1875 L 6.203125 0 L 3.21875 0 L 3.21875 -23.703125 L 6.203125 -23.703125 L 6.203125 -12.015625 C 6.867188 -12.765625 7.546875 -13.515625 8.234375 -14.265625 C 8.921875 -15.023438 9.601562 -15.78125 10.28125 -16.53125 L 16.6875 -23.703125 L 20.171875 -23.703125 L 10.78125 -13.375 Z M 20.546875 0 "/></g></g></g><g fill="#1e242d" fill-opacity="1"><g transform="translate(146.899745, 198.376451)"><g><path d="M 20.546875 0 L 17.03125 0 L 8.625 -11.3125 L 6.203125 -9.1875 L 6.203125 0 L 3.21875 0 L 3.21875 -23.703125 L 6.203125 -23.703125 L 6.203125 -12.015625 C 6.867188 -12.765625 7.546875 -13.515625 8.234375 -14.265625 C 8.921875 -15.023438 9.601562 -15.78125 10.28125 -16.53125 L 16.6875 -23.703125 L 20.171875 -23.703125 L 10.78125 -13.375 Z M 20.546875 0 "/></g></g></g><g fill="#1e242d" fill-opacity="1"><g transform="translate(167.442815, 198.376451)"><g><path d="M 16.46875 0 L 3.21875 0 L 3.21875 -23.703125 L 16.46875 -23.703125 L 16.46875 -21.078125 L 6.203125 -21.078125 L 6.203125 -13.671875 L 15.859375 -13.671875 L 15.859375 -11.078125 L 6.203125 -11.078125 L 6.203125 -2.625 L 16.46875 -2.625 Z M 16.46875 0 "/></g></g></g><g fill="#1e242d" fill-opacity="1"><g transform="translate(185.895073, 198.376451)"><g><path d="M 9.75 -23.703125 C 12.695312 -23.703125 14.875 -23.140625 16.28125 -22.015625 C 17.6875 -20.898438 18.390625 -19.210938 18.390625 -16.953125 C 18.390625 -15.691406 18.15625 -14.640625 17.6875 -13.796875 C 17.21875 -12.960938 16.625 -12.289062 15.90625 -11.78125 C 15.1875 -11.269531 14.429688 -10.882812 13.640625 -10.625 L 20.140625 0 L 16.65625 0 L 10.921875 -9.796875 L 6.203125 -9.796875 L 6.203125 0 L 3.21875 0 L 3.21875 -23.703125 Z M 9.59375 -21.109375 L 6.203125 -21.109375 L 6.203125 -12.3125 L 9.75 -12.3125 C 11.675781 -12.3125 13.082031 -12.691406 13.96875 -13.453125 C 14.851562 -14.222656 15.296875 -15.347656 15.296875 -16.828125 C 15.296875 -18.378906 14.832031 -19.476562 13.90625 -20.125 C 12.976562 -20.78125 11.539062 -21.109375 9.59375 -21.109375 Z M 9.59375 -21.109375 "/></g></g></g><g fill="#1c9e8f" fill-opacity="1"><g transform="translate(206.541495, 198.376451)"><g><path d="M 6.203125 0 L 3.21875 0 L 3.21875 -23.703125 L 16.46875 -23.703125 L 16.46875 -21.078125 L 6.203125 -21.078125 L 6.203125 -12.671875 L 15.828125 -12.671875 L 15.828125 -10.0625 L 6.203125 -10.0625 Z M 6.203125 0 "/></g></g></g><g fill="#1c9e8f" fill-opacity="1"><g transform="translate(223.765814, 198.376451)"><g><path d="M 9.890625 0 L 1.328125 0 L 1.328125 -1.71875 L 4.109375 -2.359375 L 4.109375 -21.3125 L 1.328125 -21.96875 L 1.328125 -23.703125 L 9.890625 -23.703125 L 9.890625 -21.96875 L 7.109375 -21.3125 L 7.109375 -2.359375 L 9.890625 -1.71875 Z M 9.890625 0 "/></g></g></g><g fill="#1c9e8f" fill-opacity="1"><g transform="translate(235.016374, 198.376451)"><g><path d="M 22 0 L 18.515625 0 L 5.84375 -19.6875 L 5.703125 -19.6875 C 5.753906 -18.90625 5.8125 -17.9375 5.875 -16.78125 C 5.9375 -15.632812 5.96875 -14.453125 5.96875 -13.234375 L 5.96875 0 L 3.21875 0 L 3.21875 -23.703125 L 6.671875 -23.703125 L 19.3125 -4.078125 L 19.453125 -4.078125 C 19.429688 -4.429688 19.398438 -4.960938 19.359375 -5.671875 C 19.328125 -6.378906 19.296875 -7.144531 19.265625 -7.96875 C 19.234375 -8.800781 19.21875 -9.585938 19.21875 -10.328125 L 19.21875 -23.703125 L 22 -23.703125 Z M 22 0 "/></g></g></g><g fill="#1c9e8f" fill-opacity="1"><g transform="translate(260.238876, 198.376451)"><g><path d="M 22.203125 -12.078125 C 22.203125 -8.078125 21.113281 -5.0625 18.9375 -3.03125 C 16.757812 -1.007812 13.722656 0 9.828125 0 L 3.21875 0 L 3.21875 -23.703125 L 10.515625 -23.703125 C 12.890625 -23.703125 14.953125 -23.257812 16.703125 -22.375 C 18.460938 -21.488281 19.816406 -20.179688 20.765625 -18.453125 C 21.722656 -16.722656 22.203125 -14.597656 22.203125 -12.078125 Z M 19.046875 -11.984375 C 19.046875 -15.140625 18.265625 -17.453125 16.703125 -18.921875 C 15.148438 -20.398438 12.945312 -21.140625 10.09375 -21.140625 L 6.203125 -21.140625 L 6.203125 -2.5625 L 9.421875 -2.5625 C 15.835938 -2.5625 19.046875 -5.703125 19.046875 -11.984375 Z M 19.046875 -11.984375 "/></g></g></g></svg>