<svg xmlns="http://www.w3.org/2000/svg" xmlns:xlink="http://www.w3.org/1999/xlink" width="500" zoomAndPan="magnify" viewBox="0 130 375 130" height="500" preserveAspectRatio="xMidYMid meet" version="1.0"><defs><g/></defs><path fill="#1e242d" d="M 90.921875 161.265625 C 87.75 161.199219 85.933594 162.835938 84.414062 165.023438 C 81.882812 168.667969 79.445312 172.386719 76.71875 175.875 C 73.578125 179.882812 69.542969 182.65625 64.351562 183.402344 C 58.789062 184.203125 55.261719 187.507812 53.054688 192.488281 C 51.976562 194.921875 50.882812 197.351562 49.671875 199.71875 C 48.683594 201.648438 47.523438 203.878906 45.558594 204.582031 C 37.570312 207.441406 32.203125 214.632812 24.121094 217.25 C 22.039062 217.925781 19.992188 218.699219 17.753906 219.023438 C 19.085938 216.71875 21.363281 215.882812 23.546875 215.171875 C 31.488281 212.578125 36.554688 206.132812 42.566406 201.023438 C 45.589844 198.453125 46.691406 194.398438 47.496094 190.5 C 48.8125 184.140625 52.03125 180.136719 59.039062 179.378906 C 66.394531 178.582031 71.25 173.667969 75.246094 167.839844 C 77.183594 165.015625 78.984375 162.082031 81.101562 159.402344 C 85.199219 154.222656 89.480469 153.226562 95.582031 155.804688 C 99.953125 157.65625 103.585938 160.667969 107.355469 163.453125 C 109.171875 164.796875 110.941406 166.257812 113.710938 166.542969 C 115.761719 156.910156 123.277344 156.511719 131.070312 156.277344 C 155.796875 155.539062 180.535156 155.753906 205.265625 155.539062 C 214.011719 155.464844 222.765625 155.296875 231.503906 154.941406 C 237.394531 154.699219 241.507812 157.074219 244.058594 162.3125 C 244.335938 162.882812 244.699219 163.425781 244.886719 164.023438 C 246.980469 170.785156 250.289062 175.445312 258.648438 174.074219 C 262.277344 173.476562 264.882812 176.421875 266.863281 179.386719 C 270.785156 185.257812 272.855469 191.9375 275.191406 198.503906 C 276.039062 200.890625 276.699219 203.382812 277.875 205.597656 C 279.992188 209.582031 283.414062 210.222656 286.558594 207.03125 C 292.378906 201.125 299.34375 196.058594 301.800781 187.488281 C 302.074219 186.542969 302.734375 185.691406 303.285156 184.839844 C 306.757812 179.460938 309.25 179.066406 314.507812 182.582031 C 318.609375 185.324219 322.023438 188.472656 323.808594 193.253906 C 324.746094 195.773438 326.890625 196.953125 329.601562 197.601562 C 338.273438 199.667969 344.847656 204.160156 347.261719 213.414062 C 348.34375 217.558594 350.167969 221.460938 352.949219 224.910156 C 350.800781 224.21875 349.554688 222.597656 348.519531 220.792969 C 347.449219 218.925781 346.460938 217.007812 345.457031 215.101562 C 341.964844 208.472656 336.644531 204.363281 329.101562 203.550781 C 323.628906 202.964844 319.953125 200.332031 318.0625 195.082031 C 316.640625 191.140625 313.183594 189.097656 309.921875 186.859375 C 307.410156 188.34375 306.714844 190.90625 305.808594 193.1875 C 302.089844 202.59375 293.898438 208.167969 287.117188 214.855469 C 283.710938 218.21875 278.453125 216.582031 275.273438 212.28125 C 272.578125 208.632812 271.730469 204.175781 269.902344 200.148438 C 267.96875 195.882812 266.421875 191.441406 264.632812 187.105469 C 262.59375 182.175781 259.148438 179.230469 253.515625 179.679688 C 247.941406 180.125 244.441406 177.492188 242.222656 172.539062 C 235.753906 158.097656 237.035156 161.222656 223.886719 161.269531 C 192.8125 161.378906 161.738281 161.828125 130.664062 162.183594 C 128.652344 162.207031 126.628906 162.53125 124.632812 162.84375 C 121.945312 163.269531 120.507812 164.804688 120.03125 167.613281 C 119.050781 173.390625 116.707031 174.621094 111.234375 172.597656 C 107.734375 171.300781 104.8125 169.078125 101.839844 166.898438 C 98.585938 164.515625 95.472656 161.808594 90.921875 161.265625 Z M 90.921875 161.265625 " fill-opacity="1" fill-rule="nonzero"/><g fill="#1e242d" fill-opacity="1"><g transform="translate(66.639076, 208.909234)"><g><path d="M 3.21875 0 L 3.21875 -23.703125 L 6.203125 -23.703125 L 6.203125 -2.65625 L 16.5625 -2.65625 L 16.5625 0 Z M 3.21875 0 "/></g></g></g><g fill="#1e242d" fill-opacity="1"><g transform="translate(84.029334, 208.909234)"><g><path d="M 16.46875 0 L 3.21875 0 L 3.21875 -23.703125 L 16.46875 -23.703125 L 16.46875 -21.078125 L 6.203125 -21.078125 L 6.203125 -13.671875 L 15.859375 -13.671875 L 15.859375 -11.078125 L 6.203125 -11.078125 L 6.203125 -2.625 L 16.46875 -2.625 Z M 16.46875 0 "/></g></g></g><g fill="#1e242d" fill-opacity="1"><g transform="translate(102.481592, 208.909234)"><g><path d="M 20.546875 0 L 17.03125 0 L 8.625 -11.3125 L 6.203125 -9.1875 L 6.203125 0 L 3.21875 0 L 3.21875 -23.703125 L 6.203125 -23.703125 L 6.203125 -12.015625 C 6.867188 -12.765625 7.546875 -13.515625 8.234375 -14.265625 C 8.921875 -15.023438 9.601562 -15.78125 10.28125 -16.53125 L 16.6875 -23.703125 L 20.171875 -23.703125 L 10.78125 -13.375 Z M 20.546875 0 "/></g></g></g><g fill="#1e242d" fill-opacity="1"><g transform="translate(123.024662, 208.909234)"><g><path d="M 20.546875 0 L 17.03125 0 L 8.625 -11.3125 L 6.203125 -9.1875 L 6.203125 0 L 3.21875 0 L 3.21875 -23.703125 L 6.203125 -23.703125 L 6.203125 -12.015625 C 6.867188 -12.765625 7.546875 -13.515625 8.234375 -14.265625 C 8.921875 -15.023438 9.601562 -15.78125 10.28125 -16.53125 L 16.6875 -23.703125 L 20.171875 -23.703125 L 10.78125 -13.375 Z M 20.546875 0 "/></g></g></g><g fill="#1e242d" fill-opacity="1"><g transform="translate(143.567732, 208.909234)"><g><path d="M 16.46875 0 L 3.21875 0 L 3.21875 -23.703125 L 16.46875 -23.703125 L 16.46875 -21.078125 L 6.203125 -21.078125 L 6.203125 -13.671875 L 15.859375 -13.671875 L 15.859375 -11.078125 L 6.203125 -11.078125 L 6.203125 -2.625 L 16.46875 -2.625 Z M 16.46875 0 "/></g></g></g><g fill="#1e242d" fill-opacity="1"><g transform="translate(162.01999, 208.909234)"><g><path d="M 9.75 -23.703125 C 12.695312 -23.703125 14.875 -23.140625 16.28125 -22.015625 C 17.6875 -20.898438 18.390625 -19.210938 18.390625 -16.953125 C 18.390625 -15.691406 18.15625 -14.640625 17.6875 -13.796875 C 17.21875 -12.960938 16.625 -12.289062 15.90625 -11.78125 C 15.1875 -11.269531 14.429688 -10.882812 13.640625 -10.625 L 20.140625 0 L 16.65625 0 L 10.921875 -9.796875 L 6.203125 -9.796875 L 6.203125 0 L 3.21875 0 L 3.21875 -23.703125 Z M 9.59375 -21.109375 L 6.203125 -21.109375 L 6.203125 -12.3125 L 9.75 -12.3125 C 11.675781 -12.3125 13.082031 -12.691406 13.96875 -13.453125 C 14.851562 -14.222656 15.296875 -15.347656 15.296875 -16.828125 C 15.296875 -18.378906 14.832031 -19.476562 13.90625 -20.125 C 12.976562 -20.78125 11.539062 -21.109375 9.59375 -21.109375 Z M 9.59375 -21.109375 "/></g></g></g><g fill="#1c9e8f" fill-opacity="1"><g transform="translate(182.666412, 208.909234)"><g><path d="M 6.203125 0 L 3.21875 0 L 3.21875 -23.703125 L 16.46875 -23.703125 L 16.46875 -21.078125 L 6.203125 -21.078125 L 6.203125 -12.671875 L 15.828125 -12.671875 L 15.828125 -10.0625 L 6.203125 -10.0625 Z M 6.203125 0 "/></g></g></g><g fill="#1c9e8f" fill-opacity="1"><g transform="translate(199.89073, 208.909234)"><g><path d="M 9.890625 0 L 1.328125 0 L 1.328125 -1.71875 L 4.109375 -2.359375 L 4.109375 -21.3125 L 1.328125 -21.96875 L 1.328125 -23.703125 L 9.890625 -23.703125 L 9.890625 -21.96875 L 7.109375 -21.3125 L 7.109375 -2.359375 L 9.890625 -1.71875 Z M 9.890625 0 "/></g></g></g><g fill="#1c9e8f" fill-opacity="1"><g transform="translate(211.14129, 208.909234)"><g><path d="M 22 0 L 18.515625 0 L 5.84375 -19.6875 L 5.703125 -19.6875 C 5.753906 -18.90625 5.8125 -17.9375 5.875 -16.78125 C 5.9375 -15.632812 5.96875 -14.453125 5.96875 -13.234375 L 5.96875 0 L 3.21875 0 L 3.21875 -23.703125 L 6.671875 -23.703125 L 19.3125 -4.078125 L 19.453125 -4.078125 C 19.429688 -4.429688 19.398438 -4.960938 19.359375 -5.671875 C 19.328125 -6.378906 19.296875 -7.144531 19.265625 -7.96875 C 19.234375 -8.800781 19.21875 -9.585938 19.21875 -10.328125 L 19.21875 -23.703125 L 22 -23.703125 Z M 22 0 "/></g></g></g><g fill="#1c9e8f" fill-opacity="1"><g transform="translate(236.363792, 208.909234)"><g><path d="M 22.203125 -12.078125 C 22.203125 -8.078125 21.113281 -5.0625 18.9375 -3.03125 C 16.757812 -1.007812 13.722656 0 9.828125 0 L 3.21875 0 L 3.21875 -23.703125 L 10.515625 -23.703125 C 12.890625 -23.703125 14.953125 -23.257812 16.703125 -22.375 C 18.460938 -21.488281 19.816406 -20.179688 20.765625 -18.453125 C 21.722656 -16.722656 22.203125 -14.597656 22.203125 -12.078125 Z M 19.046875 -11.984375 C 19.046875 -15.140625 18.265625 -17.453125 16.703125 -18.921875 C 15.148438 -20.398438 12.945312 -21.140625 10.09375 -21.140625 L 6.203125 -21.140625 L 6.203125 -2.5625 L 9.421875 -2.5625 C 15.835938 -2.5625 19.046875 -5.703125 19.046875 -11.984375 Z M 19.046875 -11.984375 "/></g></g></g></svg>