<svg xmlns="http://www.w3.org/2000/svg" xmlns:xlink="http://www.w3.org/1999/xlink" width="500" zoomAndPan="magnify" viewBox="0 0 375 374.999991" height="500" preserveAspectRatio="xMidYMid meet" version="1.0"><path fill="#1e242d" d="M 90.921875 161.265625 C 87.75 161.199219 85.933594 162.835938 84.414062 165.023438 C 81.882812 168.667969 79.445312 172.386719 76.71875 175.875 C 73.578125 179.882812 69.542969 182.65625 64.351562 183.402344 C 58.789062 184.203125 55.261719 187.507812 53.054688 192.488281 C 51.976562 194.921875 50.882812 197.351562 49.671875 199.71875 C 48.683594 201.648438 47.523438 203.878906 45.558594 204.582031 C 37.570312 207.441406 32.203125 214.632812 24.121094 217.25 C 22.039062 217.925781 19.992188 218.699219 17.753906 219.023438 C 19.085938 216.71875 21.363281 215.882812 23.546875 215.167969 C 31.488281 212.578125 36.554688 206.132812 42.566406 201.023438 C 45.589844 198.453125 46.691406 194.398438 47.496094 190.5 C 48.8125 184.140625 52.03125 180.136719 59.039062 179.378906 C 66.394531 178.582031 71.25 173.667969 75.246094 167.839844 C 77.183594 165.015625 78.984375 162.082031 81.101562 159.402344 C 85.199219 154.222656 89.480469 153.226562 95.582031 155.804688 C 99.953125 157.65625 103.585938 160.667969 107.355469 163.453125 C 109.171875 164.796875 110.941406 166.257812 113.710938 166.542969 C 115.761719 156.910156 123.277344 156.511719 131.070312 156.277344 C 155.796875 155.539062 180.535156 155.753906 205.265625 155.539062 C 214.011719 155.464844 222.765625 155.296875 231.503906 154.941406 C 237.394531 154.699219 241.507812 157.074219 244.058594 162.3125 C 244.335938 162.882812 244.699219 163.425781 244.886719 164.023438 C 246.980469 170.785156 250.289062 175.445312 258.648438 174.074219 C 262.277344 173.476562 264.882812 176.421875 266.863281 179.386719 C 270.785156 185.257812 272.855469 191.9375 275.191406 198.503906 C 276.039062 200.886719 276.699219 203.382812 277.875 205.597656 C 279.992188 209.582031 283.414062 210.222656 286.558594 207.03125 C 292.378906 201.121094 299.34375 196.058594 301.800781 187.488281 C 302.074219 186.542969 302.734375 185.691406 303.285156 184.839844 C 306.757812 179.460938 309.25 179.066406 314.507812 182.582031 C 318.609375 185.324219 322.023438 188.472656 323.808594 193.253906 C 324.746094 195.773438 326.890625 196.953125 329.601562 197.601562 C 338.273438 199.667969 344.847656 204.160156 347.261719 213.414062 C 348.34375 217.558594 350.167969 221.460938 352.949219 224.910156 C 350.800781 224.21875 349.554688 222.597656 348.519531 220.792969 C 347.449219 218.925781 346.460938 217.007812 345.457031 215.101562 C 341.964844 208.472656 336.644531 204.363281 329.101562 203.550781 C 323.628906 202.960938 319.953125 200.332031 318.0625 195.082031 C 316.640625 191.140625 313.183594 189.097656 309.921875 186.859375 C 307.410156 188.34375 306.714844 190.90625 305.808594 193.1875 C 302.089844 202.59375 293.898438 208.167969 287.117188 214.855469 C 283.710938 218.21875 278.453125 216.582031 275.273438 212.28125 C 272.578125 208.632812 271.730469 204.175781 269.902344 200.148438 C 267.96875 195.882812 266.421875 191.441406 264.632812 187.105469 C 262.59375 182.175781 259.148438 179.230469 253.515625 179.679688 C 247.941406 180.125 244.441406 177.492188 242.222656 172.539062 C 235.753906 158.097656 237.035156 161.222656 223.886719 161.269531 C 192.8125 161.378906 161.738281 161.828125 130.664062 162.183594 C 128.652344 162.207031 126.628906 162.53125 124.632812 162.84375 C 121.945312 163.269531 120.507812 164.804688 120.03125 167.613281 C 119.050781 173.390625 116.707031 174.621094 111.234375 172.597656 C 107.734375 171.300781 104.8125 169.078125 101.839844 166.898438 C 98.585938 164.515625 95.472656 161.808594 90.921875 161.265625 Z M 90.921875 161.265625 " fill-opacity="1" fill-rule="nonzero"/></svg>